<svg width="128" height="128" viewBox="0 0 128 128" fill="none" xmlns="http://www.w3.org/2000/svg">
<path d="M61.8805 105.933C60.6158 105.933 59.6041 105.807 58.8453 105.554C54.7983 104.542 51.8896 103.024 50.119 101.001C48.6014 98.7244 47.5897 96.9538 47.0838 95.6891C45.3133 90.1246 45.9456 84.4335 48.9808 78.616C52.0161 72.5456 55.9366 66.2222 60.7423 59.6459C62.2599 57.6224 63.6511 55.4725 64.9157 53.1961C66.4334 50.6667 67.698 48.5168 68.7098 46.7462C68.9627 46.4933 69.3421 45.9874 69.848 45.2286C68.3304 45.7345 66.4334 46.4933 64.1569 47.5051C62.1335 48.5168 59.7306 50.0344 56.9483 52.0579C52.3955 54.8402 47.5897 58.5077 42.531 63.0605C37.4723 67.3604 32.2871 71.9133 26.9755 76.719C25.7108 77.7308 24.3197 78.869 22.8021 80.1336C21.5374 81.3983 20.2727 82.663 19.0081 83.9277C16.7316 85.9511 14.0758 86.9629 11.0406 86.9629C7.75246 86.71 5.09664 85.3188 3.07316 82.7895C0.796745 80.513 -0.214995 77.8572 0.0379402 74.822C0.290875 71.5339 1.55555 68.878 3.83196 66.8546C5.09664 65.5899 6.48778 64.3252 8.00539 63.0605C9.27006 61.7959 10.5347 60.6577 11.7994 59.6459C19.8933 52.3108 27.8608 45.608 35.7018 39.5376C43.5427 33.2142 51.2573 28.4085 58.8453 25.1203C66.4333 21.8321 73.7685 21.1998 80.8506 23.2233C85.1505 24.235 88.1858 26.0056 89.9563 28.5349C91.9798 30.8114 93.118 32.8348 93.3709 34.6054C95.6473 40.1699 95.1415 46.1139 91.8533 52.4373C88.5652 58.5077 84.3917 65.2105 79.333 72.5456C78.8272 73.0515 78.1948 73.9367 77.436 75.2014C76.9301 76.2131 76.2978 77.2249 75.539 78.2366C79.333 76.719 84.2653 74.822 90.3357 72.5456C96.4061 70.2692 103.741 67.4869 112.341 64.1987C115.629 63.187 118.664 63.4399 121.447 64.9576C124.229 66.2222 126.126 68.3722 127.138 71.4074C128.402 74.1897 128.276 77.0984 126.758 80.1336C125.494 82.9159 123.47 84.9394 120.688 86.2041C112.594 88.9864 105.259 91.5157 98.6826 93.7921C92.1062 96.0685 86.5417 98.092 81.9888 99.8626C79.4595 100.874 77.1831 101.76 75.1596 102.518C73.3891 103.024 71.745 103.53 70.2274 104.036C68.4568 104.542 66.9392 105.048 65.6745 105.554C64.4099 105.807 63.1452 105.933 61.8805 105.933Z" fill="#1AA2F2"/>
</svg>
